<svg id="Fav" xmlns="http://www.w3.org/2000/svg" xmlns:xlink="http://www.w3.org/1999/xlink" viewBox="0 0 46 33.16"><defs><style>.cls-1{fill:url(#Degradado_sin_nombre_19);}</style><radialGradient id="Degradado_sin_nombre_19" cx="23" cy="23" r="26.34" gradientUnits="userSpaceOnUse"><stop offset="0" stop-color="#4db5ff"/><stop offset="0.24" stop-color="#4cb2fc"/><stop offset="0.4" stop-color="#4aaaf3"/><stop offset="0.53" stop-color="#479ce4"/><stop offset="0.65" stop-color="#4288cf"/><stop offset="0.76" stop-color="#3c6fb3"/><stop offset="0.87" stop-color="#355092"/><stop offset="0.97" stop-color="#2c2c6c"/></radialGradient></defs><title>fav</title><path class="cls-1" d="M44.9,20.34a3.76,3.76,0,0,1,0,5.32l-2.67,2.67L32.08,38.48a3.76,3.76,0,0,1-5.32,0h0a3.77,3.77,0,0,1,0-5.33l7.48-7.49a3.76,3.76,0,0,0,0-5.32l-7.48-7.49a3.77,3.77,0,0,1,0-5.33h0a3.76,3.76,0,0,1,5.32,0Zm-31,18.14a3.76,3.76,0,0,0,5.32,0h0a3.77,3.77,0,0,0,0-5.33l-7.48-7.49a3.76,3.76,0,0,1,0-5.32l7.48-7.49a3.77,3.77,0,0,0,0-5.33h0a3.76,3.76,0,0,0-5.32,0L3.77,17.67,1.1,20.34a3.76,3.76,0,0,0,0,5.32Z" transform="translate(0 -6.42)"/></svg>